<svg xmlns="http://www.w3.org/2000/svg" width="190.784" height="23.968" viewBox="0 0 190.784 23.968"><path d="M13.344-3.9a6.58,6.58,0,0,1,.64,1.488,6.955,6.955,0,0,1,.256,2,9.909,9.909,0,0,1-2.4.656A18.316,18.316,0,0,1,9.5.384,9.158,9.158,0,0,1,5.888-.272,6.943,6.943,0,0,1,3.344-2.08a7.69,7.69,0,0,1-1.52-2.736,11.127,11.127,0,0,1-.512-3.44,11.191,11.191,0,0,1,.5-3.392,7.841,7.841,0,0,1,1.5-2.752,6.99,6.99,0,0,1,2.512-1.856,8.479,8.479,0,0,1,3.488-.672q.7,0,1.3.032a9.48,9.48,0,0,1,1.136.128,10.034,10.034,0,0,1,1.088.256q.544.16,1.216.416a8.073,8.073,0,0,1-.192,1.648,7.2,7.2,0,0,1-.608,1.744,10.566,10.566,0,0,0-1.68-.432,10.817,10.817,0,0,0-1.648-.112,3.557,3.557,0,0,0-2.992,1.3,5.908,5.908,0,0,0-1.008,3.7A5.469,5.469,0,0,0,7.008-4.48,3.8,3.8,0,0,0,9.952-3.3q.48,0,.88-.016a6.3,6.3,0,0,0,.784-.08,5.587,5.587,0,0,0,.784-.192Q12.8-3.712,13.344-3.9ZM25.7-7.584q-.384-.064-.832-.112a7.593,7.593,0,0,0-.8-.048,4.719,4.719,0,0,0-2.48.56,1.96,1.96,0,0,0-.912,1.808,2.032,2.032,0,0,0,.352,1.28,2.1,2.1,0,0,0,.848.656,3.482,3.482,0,0,0,1.056.256q.56.048.976.048a5.83,5.83,0,0,0,.96-.08q.48-.08.832-.144Zm0-3.3a2.647,2.647,0,0,0-.256-1.248,1.914,1.914,0,0,0-.7-.752,2.928,2.928,0,0,0-1.1-.368,10.1,10.1,0,0,0-1.456-.1,11.325,11.325,0,0,0-3.68.672,8.656,8.656,0,0,1-.672-1.568A6.088,6.088,0,0,1,17.6-16a16.992,16.992,0,0,1,2.816-.7,16.763,16.763,0,0,1,2.624-.224,7.755,7.755,0,0,1,5.2,1.6q1.872,1.6,1.872,5.12v9.6a26.687,26.687,0,0,1-2.72.672,18.53,18.53,0,0,1-3.616.32A14.461,14.461,0,0,1,20.784.1a6.416,6.416,0,0,1-2.336-.96,4.521,4.521,0,0,1-1.5-1.728,5.756,5.756,0,0,1-.528-2.592,4.739,4.739,0,0,1,.656-2.576,5.059,5.059,0,0,1,1.7-1.664,7.5,7.5,0,0,1,2.32-.9,12.285,12.285,0,0,1,2.56-.272q.928,0,2.048.1Zm8.32-12.512a13.8,13.8,0,0,1,2.272-.192,13.619,13.619,0,0,1,2.24.192v16.8a9.175,9.175,0,0,0,.112,1.6,2.363,2.363,0,0,0,.352.944,1.227,1.227,0,0,0,.624.464,3.075,3.075,0,0,0,.96.128,5.379,5.379,0,0,0,.56-.032,5.27,5.27,0,0,0,.592-.1,9.858,9.858,0,0,1,.352,2.56V-.56a1.93,1.93,0,0,1-.064.464,5.938,5.938,0,0,1-1.232.224q-.72.064-1.328.064A5.63,5.63,0,0,1,35.5-1.168Q34.016-2.528,34.016-5.6Zm10.368,0a13.8,13.8,0,0,1,2.272-.192,13.619,13.619,0,0,1,2.24.192v16.8a9.175,9.175,0,0,0,.112,1.6,2.363,2.363,0,0,0,.352.944,1.227,1.227,0,0,0,.624.464,3.075,3.075,0,0,0,.96.128,5.379,5.379,0,0,0,.56-.032,5.27,5.27,0,0,0,.592-.1,9.858,9.858,0,0,1,.352,2.56V-.56a1.93,1.93,0,0,1-.064.464,5.938,5.938,0,0,1-1.232.224q-.72.064-1.328.064a5.63,5.63,0,0,1-3.952-1.36Q44.384-2.528,44.384-5.6Zm10.5,6.848q.48-.1.912-.144a8.584,8.584,0,0,1,.944-.048,6.9,6.9,0,0,1,.944.064q.464.064.912.16a1.842,1.842,0,0,1,.176.464q.08.3.144.64t.112.672l.08.56a8.245,8.245,0,0,1,1.728-1.776,4.088,4.088,0,0,1,2.56-.784q.32,0,.736.032a2.768,2.768,0,0,1,.608.1,6.222,6.222,0,0,1,.1.736q.032.416.032.864,0,.544-.048,1.184a8.551,8.551,0,0,1-.176,1.216,4.4,4.4,0,0,0-.784-.064h-.528a7.461,7.461,0,0,0-1.216.112,2.8,2.8,0,0,0-1.28.592,3.5,3.5,0,0,0-1.008,1.44,7.2,7.2,0,0,0-.4,2.688V.032A10.568,10.568,0,0,1,58.272.16q-.576.032-1.12.032T56.048.16Q55.488.128,54.88.032ZM74.272.384a8.631,8.631,0,0,1-3.5-.656A6.649,6.649,0,0,1,68.3-2.1a7.957,7.957,0,0,1-1.472-2.736,11.191,11.191,0,0,1-.5-3.392,11.5,11.5,0,0,1,.5-3.424A7.916,7.916,0,0,1,68.3-14.416a6.8,6.8,0,0,1,2.464-1.84,8.451,8.451,0,0,1,3.5-.672,8.564,8.564,0,0,1,3.52.672,6.924,6.924,0,0,1,2.5,1.84,7.582,7.582,0,0,1,1.472,2.768,11.859,11.859,0,0,1,.48,3.424,11.536,11.536,0,0,1-.48,3.392A7.614,7.614,0,0,1,80.288-2.1a6.766,6.766,0,0,1-2.5,1.824A8.746,8.746,0,0,1,74.272.384Zm0-3.456A2.757,2.757,0,0,0,76.848-4.4a7.607,7.607,0,0,0,.784-3.824,7.607,7.607,0,0,0-.784-3.824,2.757,2.757,0,0,0-2.576-1.328,2.727,2.727,0,0,0-2.544,1.328,7.607,7.607,0,0,0-.784,3.824A7.607,7.607,0,0,0,71.728-4.4,2.727,2.727,0,0,0,74.272-3.072ZM85.824-16.544a8.7,8.7,0,0,1,.9-.144,9.366,9.366,0,0,1,.992-.048,8.473,8.473,0,0,1,.96.048q.416.048.864.144a1.842,1.842,0,0,1,.176.464q.08.3.144.64t.112.656q.048.32.08.544a7.565,7.565,0,0,1,.768-.96,5.53,5.53,0,0,1,1.04-.864,5.64,5.64,0,0,1,1.328-.624,5.244,5.244,0,0,1,1.632-.24,5.5,5.5,0,0,1,4.24,1.536q1.424,1.536,1.424,4.832V0a13.8,13.8,0,0,1-2.272.192A13.8,13.8,0,0,1,95.936,0V-9.344A5.442,5.442,0,0,0,95.408-12a1.938,1.938,0,0,0-1.84-.928,4.176,4.176,0,0,0-1.12.16,2.349,2.349,0,0,0-1.04.624,3.355,3.355,0,0,0-.752,1.3,6.8,6.8,0,0,0-.288,2.176V0A13.8,13.8,0,0,1,88.1.192,13.8,13.8,0,0,1,85.824,0Zm28.7-6.848a10.578,10.578,0,0,1,1.136-.128q.56-.032,1.1-.032t1.12.032a10.569,10.569,0,0,1,1.152.128V-.544a23.01,23.01,0,0,1-3.056.688,25.085,25.085,0,0,1-3.76.24,11.279,11.279,0,0,1-3.248-.464,7.467,7.467,0,0,1-2.736-1.472,6.975,6.975,0,0,1-1.872-2.608,9.874,9.874,0,0,1-.688-3.9,9.922,9.922,0,0,1,.592-3.44,8.178,8.178,0,0,1,1.7-2.8,8,8,0,0,1,2.672-1.872,8.59,8.59,0,0,1,3.488-.688q.576,0,1.2.048a6.27,6.27,0,0,1,1.2.208Zm0,10.272a8.838,8.838,0,0,0-1.04-.208,8.72,8.72,0,0,0-1.008-.048,3.753,3.753,0,0,0-1.84.432,3.846,3.846,0,0,0-1.3,1.152,4.922,4.922,0,0,0-.752,1.7,8.48,8.48,0,0,0-.24,2.032,6.761,6.761,0,0,0,.32,2.224,3.7,3.7,0,0,0,.88,1.456,3.281,3.281,0,0,0,1.328.784,5.552,5.552,0,0,0,1.664.24,9.365,9.365,0,0,0,.992-.048,5.705,5.705,0,0,0,.992-.208ZM127.04-6.88A3.483,3.483,0,0,0,128.384-4.1a5.41,5.41,0,0,0,3.2.864,12.335,12.335,0,0,0,2.224-.208,12.6,12.6,0,0,0,2.16-.592,7.432,7.432,0,0,1,.608,1.536,7.862,7.862,0,0,1,.288,1.92,15.592,15.592,0,0,1-5.632.96,10.922,10.922,0,0,1-3.952-.64,7.014,7.014,0,0,1-2.688-1.776,7.129,7.129,0,0,1-1.536-2.7,11.3,11.3,0,0,1-.5-3.424,11.171,11.171,0,0,1,.512-3.424,8,8,0,0,1,1.52-2.784,7.192,7.192,0,0,1,2.5-1.872,8.2,8.2,0,0,1,3.472-.688,7.38,7.38,0,0,1,3.072.608,6.771,6.771,0,0,1,2.288,1.664,7.01,7.01,0,0,1,1.424,2.512,9.9,9.9,0,0,1,.48,3.12q0,.608-.048,1.2t-.112.944Zm6.5-3.168a4.03,4.03,0,0,0-.848-2.48,2.692,2.692,0,0,0-2.192-.944,3.157,3.157,0,0,0-2.432.9,4.209,4.209,0,0,0-.992,2.528ZM144.608-7.2a6.337,6.337,0,0,1-2.8-1.52,4.107,4.107,0,0,1-1.008-3.024,4.581,4.581,0,0,1,1.744-3.808,7.474,7.474,0,0,1,4.752-1.376,13.572,13.572,0,0,1,2.464.224,15.725,15.725,0,0,1,2.464.672,8.732,8.732,0,0,1-.32,1.728,8.294,8.294,0,0,1-.608,1.568,12.646,12.646,0,0,0-1.7-.56,7.768,7.768,0,0,0-1.952-.24,3.54,3.54,0,0,0-1.7.336,1.136,1.136,0,0,0-.608,1.072,1.1,1.1,0,0,0,.432.992,5.046,5.046,0,0,0,1.232.544l1.824.544a8.947,8.947,0,0,1,1.616.624,4.461,4.461,0,0,1,1.232.912,3.818,3.818,0,0,1,.8,1.344,5.8,5.8,0,0,1,.288,1.952,5,5,0,0,1-.5,2.208,5.1,5.1,0,0,1-1.44,1.776,7.137,7.137,0,0,1-2.288,1.184,9.917,9.917,0,0,1-3.04.432q-.768,0-1.408-.048a11.086,11.086,0,0,1-1.232-.16Q142.272.064,141.7-.1t-1.248-.416a9.2,9.2,0,0,1,.3-1.744,10.961,10.961,0,0,1,.624-1.712,13.284,13.284,0,0,0,2,.624,9.122,9.122,0,0,0,1.968.208,6.547,6.547,0,0,0,.976-.08A3.578,3.578,0,0,0,147.3-3.5a2.312,2.312,0,0,0,.752-.544,1.261,1.261,0,0,0,.3-.88,1.27,1.27,0,0,0-.464-1.1,4.476,4.476,0,0,0-1.3-.592ZM156.16,0a14.576,14.576,0,0,1-.192-2.336A15.175,15.175,0,0,1,156.16-4.7,14.576,14.576,0,0,1,158.5-4.9a15.176,15.176,0,0,1,2.368.192,14.984,14.984,0,0,1,.192,2.336A14.77,14.77,0,0,1,160.864,0a14.985,14.985,0,0,1-2.336.192A14.77,14.77,0,0,1,156.16,0Zm9.216-16.544a8.7,8.7,0,0,1,.9-.144,9.366,9.366,0,0,1,.992-.048,8.473,8.473,0,0,1,.96.048q.416.048.864.144a1.841,1.841,0,0,1,.176.464q.08.3.144.64t.112.656q.048.32.08.544a7.566,7.566,0,0,1,.768-.96,5.53,5.53,0,0,1,1.04-.864,5.64,5.64,0,0,1,1.328-.624,5.243,5.243,0,0,1,1.632-.24,5.5,5.5,0,0,1,4.24,1.536q1.424,1.536,1.424,4.832V0a13.8,13.8,0,0,1-2.272.192A13.8,13.8,0,0,1,175.488,0V-9.344A5.442,5.442,0,0,0,174.96-12a1.938,1.938,0,0,0-1.84-.928,4.176,4.176,0,0,0-1.12.16,2.349,2.349,0,0,0-1.04.624,3.355,3.355,0,0,0-.752,1.3,6.8,6.8,0,0,0-.288,2.176V0a13.8,13.8,0,0,1-2.272.192A13.8,13.8,0,0,1,165.376,0Zm18.656-6.848a13.8,13.8,0,0,1,2.272-.192,13.619,13.619,0,0,1,2.24.192v16.8a9.173,9.173,0,0,0,.112,1.6,2.363,2.363,0,0,0,.352.944,1.227,1.227,0,0,0,.624.464,3.075,3.075,0,0,0,.96.128,5.379,5.379,0,0,0,.56-.032,5.27,5.27,0,0,0,.592-.1,9.858,9.858,0,0,1,.352,2.56V-.56a1.93,1.93,0,0,1-.064.464A5.938,5.938,0,0,1,190.8.128q-.72.064-1.328.064a5.63,5.63,0,0,1-3.952-1.36q-1.488-1.36-1.488-4.432Z" transform="translate(-1.312 23.584)" fill="#43425d" opacity="0.48"/></svg>