<svg xmlns="http://www.w3.org/2000/svg" width="17.438" height="17.438" viewBox="0 0 17.438 17.438"><path d="M9-15.469a8.452,8.452,0,0,1,4.359,1.178,8.81,8.81,0,0,1,3.182,3.182A8.452,8.452,0,0,1,17.719-6.75a8.452,8.452,0,0,1-1.178,4.359A8.81,8.81,0,0,1,13.359.791,8.452,8.452,0,0,1,9,1.969,8.452,8.452,0,0,1,4.641.791,8.81,8.81,0,0,1,1.459-2.391,8.452,8.452,0,0,1,.281-6.75a8.452,8.452,0,0,1,1.178-4.359,8.81,8.81,0,0,1,3.182-3.182A8.452,8.452,0,0,1,9-15.469ZM9-11.6a1.418,1.418,0,0,0-1.037.439,1.418,1.418,0,0,0-.439,1.037,1.418,1.418,0,0,0,.439,1.037A1.418,1.418,0,0,0,9-8.648a1.418,1.418,0,0,0,1.037-.439,1.418,1.418,0,0,0,.439-1.037,1.418,1.418,0,0,0-.439-1.037A1.418,1.418,0,0,0,9-11.6Zm1.969,8.93v-.844a.407.407,0,0,0-.123-.3.407.407,0,0,0-.3-.123h-.422V-7.453a.407.407,0,0,0-.123-.3.407.407,0,0,0-.3-.123H7.453a.407.407,0,0,0-.3.123.407.407,0,0,0-.123.3v.844a.407.407,0,0,0,.123.3.407.407,0,0,0,.3.123h.422v2.25H7.453a.407.407,0,0,0-.3.123.407.407,0,0,0-.123.3v.844a.407.407,0,0,0,.123.3.407.407,0,0,0,.3.123h3.094a.407.407,0,0,0,.3-.123A.407.407,0,0,0,10.969-2.672Z" transform="translate(-0.281 15.469)" fill="#bcbccb"/></svg>